<svg width="28" height="28" viewBox="0 0 28 28" fill="none" xmlns="http://www.w3.org/2000/svg">
<circle cx="14" cy="14" r="14" fill="white"/>
<path d="M13.9999 8.39999C12.5147 8.39999 11.0903 8.98999 10.0401 10.0402C8.9899 11.0904 8.3999 12.5148 8.3999 14C8.3999 15.4852 8.9899 16.9096 10.0401 17.9598C11.0903 19.01 12.5147 19.6 13.9999 19.6C14.1856 19.6 14.3636 19.5262 14.4949 19.395C14.6261 19.2637 14.6999 19.0856 14.6999 18.9C14.6999 18.7143 14.6261 18.5363 14.4949 18.405C14.3636 18.2737 14.1856 18.2 13.9999 18.2C13.1692 18.2 12.3572 17.9537 11.6665 17.4922C10.9758 17.0307 10.4375 16.3747 10.1196 15.6073C9.80172 14.8398 9.71855 13.9953 9.8806 13.1806C10.0427 12.3659 10.4427 11.6175 11.0301 11.0301C11.6174 10.4428 12.3658 10.0428 13.1805 9.8807C13.9952 9.71864 14.8397 9.80181 15.6072 10.1197C16.3746 10.4376 17.0306 10.9759 17.4921 11.6666C17.9536 12.3573 18.1999 13.1693 18.1999 14V16.1C18.1999 16.2856 18.1261 16.4637 17.9949 16.595C17.8636 16.7262 17.6855 16.8 17.4999 16.8C17.3142 16.8 17.1362 16.7262 17.0049 16.595C16.8736 16.4637 16.7999 16.2856 16.7999 16.1V14C16.7999 13.4462 16.6357 12.9049 16.328 12.4444C16.0203 11.9839 15.583 11.6251 15.0714 11.4131C14.5598 11.2012 13.9968 11.1458 13.4536 11.2538C12.9105 11.3618 12.4116 11.6285 12.02 12.0201C11.6284 12.4117 11.3617 12.9106 11.2537 13.4537C11.1457 13.9969 11.2011 14.5599 11.413 15.0715C11.625 15.5831 11.9838 16.0204 12.4443 16.3281C12.9048 16.6358 13.4461 16.8 13.9999 16.8C14.5046 16.7975 14.9989 16.6572 15.4296 16.3942C15.503 16.9201 15.7732 17.3985 16.1858 17.7328C16.5984 18.0671 17.1225 18.2322 17.6522 18.1948C18.1819 18.1575 18.6776 17.9204 19.0391 17.5315C19.4007 17.1426 19.6011 16.631 19.5999 16.1V14C19.5984 12.5152 19.008 11.0917 17.9581 10.0418C16.9082 8.99193 15.4847 8.40146 13.9999 8.39999V8.39999ZM13.9999 15.4C13.723 15.4 13.4523 15.3179 13.2221 15.1641C12.9919 15.0102 12.8124 14.7916 12.7065 14.5358C12.6005 14.2799 12.5728 13.9984 12.6268 13.7269C12.6808 13.4553 12.8142 13.2058 13.01 13.01C13.2057 12.8143 13.4552 12.6809 13.7268 12.6269C13.9983 12.5729 14.2798 12.6006 14.5357 12.7066C14.7915 12.8125 15.0101 12.992 15.164 13.2222C15.3178 13.4524 15.3999 13.7231 15.3999 14C15.3996 14.3712 15.2521 14.7272 14.9896 14.9897C14.7271 15.2522 14.3711 15.3997 13.9999 15.4Z" fill="#151515"/>
</svg>
