<?xml version="1.0" standalone="no"?>
<!DOCTYPE svg PUBLIC "-//W3C//DTD SVG 20010904//EN"
 "http://www.w3.org/TR/2001/REC-SVG-20010904/DTD/svg10.dtd">
<svg version="1.0" xmlns="http://www.w3.org/2000/svg"
 width="253.000000pt" height="228.000000pt" viewBox="0 0 253.000000 228.000000"
 preserveAspectRatio="xMidYMid meet">

<g transform="translate(0.000000,228.000000) scale(0.100000,-0.100000)"
fill="#000000" stroke="none">
<path d="M558 1589 c-122 -13 -218 -72 -262 -161 -24 -48 -26 -62 -26 -185 0
-119 -2 -135 -20 -153 -31 -31 -36 -68 -13 -98 31 -42 66 -58 100 -46 25 9 32
7 65 -22 47 -42 119 -64 234 -71 143 -9 239 21 306 95 20 22 45 42 55 44 10 1
25 17 33 34 13 27 22 33 62 37 127 16 214 125 175 220 -24 56 -75 77 -186 77
l-91 0 -15 38 c-8 20 -18 42 -22 48 -5 6 -25 36 -46 67 -36 54 -40 57 -80 57
-23 0 -58 4 -77 9 -55 14 -119 17 -192 10z m121 -35 c19 -4 31 -13 31 -23 0
-9 6 -27 13 -41 8 -14 17 -41 20 -59 4 -19 12 -40 18 -48 14 -16 150 -18 166
-2 7 7 12 6 16 -5 6 -14 -13 -16 -158 -16 -136 0 -173 -3 -213 -18 -104 -40
-182 -116 -211 -204 -14 -42 -19 -44 -46 -25 -16 13 -17 25 -13 128 6 127 21
175 70 226 61 63 212 106 307 87z m174 -49 c-1 -11 -5 -31 -9 -44 -6 -21 -5
-23 15 -18 15 3 24 -1 31 -14 10 -18 7 -19 -44 -19 -62 0 -75 14 -51 61 15 28
15 29 -9 29 -13 0 -27 7 -30 16 -5 13 3 15 47 12 45 -3 52 -6 50 -23z m46
-188 c-2 -2 -46 -43 -97 -91 -122 -114 -151 -126 -297 -126 l-113 0 11 38 c16
54 100 134 167 160 46 18 78 21 194 21 77 1 137 0 135 -2z m317 -30 c13 -15
24 -38 24 -51 0 -58 -91 -135 -160 -136 l-35 0 0 47 c0 45 -2 48 -27 51 -27 3
-28 6 -28 57 0 33 5 55 13 59 6 3 52 4 100 3 84 -2 90 -4 113 -30z m-266 -41
l0 -44 -60 -4 c-33 -1 -60 0 -60 4 0 8 100 88 111 88 5 0 9 -20 9 -44z m50
-90 c0 -2 -14 -33 -30 -70 -25 -55 -35 -67 -52 -64 -33 5 -39 38 -16 91 19 44
23 47 59 47 22 0 39 -2 39 -4z m-292 -91 c-20 -42 -25 -45 -60 -45 -21 0 -38
4 -38 8 0 18 27 40 62 52 21 6 40 16 43 21 4 5 8 9 10 9 3 0 -5 -20 -17 -45z
m142 -18 c17 -37 32 -53 48 -55 27 -4 28 -14 5 -34 -45 -40 -108 -61 -195 -66
-147 -8 -272 28 -306 89 -20 33 -24 35 -57 13 -30 -20 -62 -11 -77 22 -20 43
0 52 105 46 87 -4 94 -6 130 -39 l38 -34 107 3 107 3 29 58 c16 32 31 55 34
52 4 -3 18 -29 32 -58z"/>
<path d="M1624 1395 c-4 -9 -2 -21 4 -27 15 -15 44 -1 40 19 -4 23 -36 29 -44
8z"/>
<path d="M2064 1395 c-4 -9 -2 -21 4 -27 15 -15 44 -1 40 19 -4 23 -36 29 -44
8z"/>
<path d="M1350 1320 c0 -17 7 -20 40 -20 l41 0 -41 -53 c-22 -30 -40 -59 -40
-65 0 -8 24 -12 70 -12 56 0 70 3 70 15 0 11 -11 15 -40 15 -22 0 -40 2 -40 5
0 3 18 28 40 56 57 72 54 79 -30 79 -63 0 -70 -2 -70 -20z"/>
<path d="M1580 1325 c0 -8 9 -15 20 -15 18 0 20 -7 20 -55 0 -52 -1 -55 -25
-55 -16 0 -25 -6 -25 -15 0 -12 15 -15 75 -15 62 0 73 2 69 15 -4 8 -17 15
-30 15 -23 0 -24 3 -24 70 l0 70 -40 0 c-29 0 -40 -4 -40 -15z"/>
<path d="M1813 1325 c-20 -14 -22 -24 -21 -83 0 -37 -3 -75 -7 -86 -26 -60 92
-89 145 -36 11 11 20 25 20 30 0 20 -41 45 -83 50 -23 3 -41 10 -39 15 2 6 14
9 27 7 33 -4 79 40 70 68 -5 14 -2 20 10 20 9 0 15 6 13 13 -7 19 -108 21
-135 2z m72 -45 c0 -18 -6 -26 -23 -28 -13 -2 -25 3 -28 12 -10 26 4 48 28 44
17 -2 23 -10 23 -28z m10 -135 c0 -15 -8 -21 -29 -23 -33 -4 -51 10 -42 33 9
25 71 16 71 -10z"/>
<path d="M2020 1325 c0 -9 9 -15 25 -15 24 0 25 -3 25 -54 0 -52 -1 -55 -27
-58 -14 -2 -28 -9 -31 -15 -3 -10 16 -13 72 -13 61 0 76 3 76 15 0 9 -9 15
-25 15 -24 0 -25 2 -25 70 l0 70 -45 0 c-33 0 -45 -4 -45 -15z"/>
</g>
</svg>
