<svg width="28" height="28" viewBox="0 0 28 28" fill="none" xmlns="http://www.w3.org/2000/svg">
<circle cx="14" cy="14" r="14" fill="white"/>
<path d="M10.6279 16.7064C10.7284 16.5925 10.7708 16.5551 10.798 16.5379C10.8042 16.5339 10.8076 16.532 10.8144 16.5301C10.8223 16.5278 10.8369 16.5254 10.8644 16.5254H17.5839C17.8577 16.5254 18.0818 16.3086 18.0818 16.0386C18.0818 15.7686 17.8577 15.5518 17.5839 15.5518H10.8644C10.6365 15.5518 10.4368 15.6064 10.2558 15.7212C10.0957 15.8228 9.9712 15.9601 9.87377 16.0706C9.70028 16.2672 9.60566 16.5228 9.5522 16.7336C9.49612 16.9547 9.47051 17.1866 9.47051 17.3825C9.47051 17.6526 9.69466 17.8693 9.96848 17.8693C10.2423 17.8693 10.4665 17.6526 10.4665 17.3825C10.4665 17.2616 10.4832 17.1086 10.5189 16.9679C10.5572 16.8168 10.6038 16.7338 10.6279 16.7064Z" fill="#151515" stroke="#F8FAFF" stroke-width="0.1" stroke-linecap="round" stroke-linejoin="round"/>
<path d="M18.53 8.87104C18.53 8.3598 18.1053 7.9475 17.584 7.9475H11.5364C10.9496 7.9475 10.4133 8.20489 10.037 8.6188C9.66394 9.02917 9.47051 9.56452 9.47051 10.103V17.4945C9.47051 18.033 9.66394 18.5683 10.037 18.9787C10.4133 19.3926 10.9496 19.65 11.5364 19.65H17.584C18.1053 19.65 18.53 19.2377 18.53 18.7264V8.87104ZM10.7815 9.2655C10.9826 9.04429 11.2542 8.92104 11.5364 8.92104H17.534V18.6764H11.5364C11.2542 18.6764 10.9826 18.5532 10.7815 18.332C10.5802 18.1106 10.4665 17.8094 10.4665 17.4945V10.103C10.4665 9.78805 10.5802 9.48687 10.7815 9.2655Z" fill="#151515" stroke="white" stroke-width="0.1" stroke-linecap="round" stroke-linejoin="round"/>
</svg>
