<svg width="11" height="10" viewBox="0 0 11 10" fill="none" xmlns="http://www.w3.org/2000/svg">
<g clip-path="url(#clip0_1937_26)">
<path fill-rule="evenodd" clip-rule="evenodd" d="M2.0431 2.59242C1.92852 2.59242 1.81862 2.63795 1.7376 2.71898C1.65657 2.80001 1.61105 2.90992 1.61105 3.02452V8.45673C1.61105 8.57133 1.65657 8.68124 1.7376 8.76227C1.81862 8.84331 1.92852 8.88883 2.0431 8.88883H7.47479C7.58938 8.88883 7.69927 8.84331 7.7803 8.76227C7.86132 8.68124 7.90684 8.57133 7.90684 8.45673V5.49371C7.90684 5.18687 8.15556 4.93813 8.46237 4.93813C8.76918 4.93813 9.01789 5.18687 9.01789 5.49371V8.45673C9.01789 8.86603 8.85532 9.25856 8.56593 9.54798C8.27654 9.8374 7.88405 9.99999 7.47479 9.99999H2.0431C1.63385 9.99999 1.24135 9.8374 0.951965 9.54798C0.662577 9.25856 0.5 8.86603 0.5 8.45673V3.02452C0.5 2.61522 0.662576 2.22269 0.951965 1.93327C1.24135 1.64385 1.63385 1.48126 2.0431 1.48126H5.00584C5.31265 1.48126 5.56137 1.73 5.56137 2.03684C5.56137 2.34368 5.31265 2.59242 5.00584 2.59242H2.0431Z" fill="white"/>
<path fill-rule="evenodd" clip-rule="evenodd" d="M6.4248 0.555579C6.4248 0.248741 6.67352 0 6.98033 0H9.94307C10.2499 0 10.4986 0.248741 10.4986 0.555579V3.51861C10.4986 3.82545 10.2499 4.07419 9.94307 4.07419C9.63626 4.07419 9.38754 3.82545 9.38754 3.51861V1.11116H6.98033C6.67352 1.11116 6.4248 0.862418 6.4248 0.555579Z" fill="white"/>
<path fill-rule="evenodd" clip-rule="evenodd" d="M10.3375 0.162725C10.5545 0.379693 10.5545 0.731466 10.3375 0.948433L4.90586 6.38065C4.68891 6.59762 4.33718 6.59762 4.12023 6.38065C3.90328 6.16368 3.90328 5.81191 4.12023 5.59494L9.55191 0.162725C9.76886 -0.0542418 10.1206 -0.0542418 10.3375 0.162725Z" fill="white"/>
</g>
<defs>
<clipPath id="clip0_1937_26">
<rect width="10" height="10" fill="white" transform="translate(0.5)"/>
</clipPath>
</defs>
</svg>
