<svg width="28" height="28" viewBox="0 0 28 28" fill="none" xmlns="http://www.w3.org/2000/svg">
<circle cx="14" cy="14" r="14" fill="white"/>
<path d="M18.9754 17.6498L16.5956 15.2699C17.0873 14.5288 17.3751 13.6415 17.3751 12.6875C17.3751 10.1028 15.2723 7.99999 12.6875 7.99999C10.1028 7.99999 8 10.1028 8 12.6875C8 15.2723 10.1028 17.3751 12.6875 17.3751C13.6415 17.3751 14.5288 17.0873 15.2699 16.5956L17.6498 18.9754C18.0154 19.3415 18.6098 19.3415 18.9754 18.9754C19.3415 18.6093 19.3415 18.0159 18.9754 17.6498ZM9.40626 12.6875C9.40626 10.8781 10.8782 9.40626 12.6875 9.40626C14.4969 9.40626 15.9688 10.8781 15.9688 12.6875C15.9688 14.4969 14.4969 15.9688 12.6875 15.9688C10.8782 15.9688 9.40626 14.4969 9.40626 12.6875Z" fill="#151515"/>
</svg>
