<svg width="28" height="28" viewBox="0 0 28 28" fill="none" xmlns="http://www.w3.org/2000/svg">
<circle cx="14" cy="14" r="14" fill="white"/>
<path d="M14.9291 14.6582L14.9291 14.6582L17.4113 17.1405C17.4114 17.1405 17.4114 17.1405 17.4114 17.1405C17.5565 17.2864 17.6378 17.4839 17.6375 17.6897C17.6372 17.8955 17.5553 18.0928 17.4098 18.2383C17.2643 18.3838 17.067 18.4657 16.8612 18.466C16.6554 18.4663 16.458 18.385 16.3121 18.2399C16.312 18.2399 16.312 18.2399 16.312 18.2398L15.2422 17.1701L15.1568 17.0847V17.2054V20.1726C15.1568 20.3788 15.0749 20.5766 14.9291 20.7224C14.7833 20.8682 14.5856 20.9501 14.3794 20.9501C14.1732 20.9501 13.9755 20.8682 13.8296 20.7224C13.6838 20.5766 13.6019 20.3788 13.6019 20.1726V17.2054V17.0847L13.5166 17.1701L12.4468 18.2398C12.4468 18.2399 12.4468 18.2399 12.4468 18.2399C12.3008 18.385 12.1034 18.4663 11.8976 18.466C11.6918 18.4657 11.4945 18.3838 11.349 18.2383C11.2035 18.0928 11.1216 17.8955 11.1213 17.6897C11.121 17.4839 11.2023 17.2864 11.3474 17.1405C11.3474 17.1405 11.3474 17.1405 11.3474 17.1405L13.8297 14.6582L13.8297 14.6582C13.9019 14.586 13.9876 14.5287 14.0819 14.4896C14.1762 14.4506 14.2773 14.4304 14.3794 14.4304C14.4815 14.4304 14.5826 14.4506 14.6769 14.4896C14.7712 14.5287 14.8569 14.586 14.9291 14.6582Z" fill="#151515" stroke="#151515" stroke-width="0.1"/>
<path d="M16.9127 11.8981C16.9134 11.2753 16.6842 10.6741 16.2691 10.2097C15.8541 9.74532 15.2823 9.45037 14.6632 9.38135C14.0442 9.31234 13.4215 9.4741 12.9144 9.83567C12.4072 10.1972 12.0512 10.7332 11.9147 11.3409C11.8917 11.4424 11.8487 11.5384 11.7882 11.6232C11.7277 11.7079 11.6509 11.7797 11.5624 11.8345C11.4737 11.8888 11.3749 11.9248 11.2721 11.9402C11.1696 11.9555 11.0651 11.9501 10.9647 11.9243C10.8668 11.8935 10.7671 11.8683 10.6663 11.849L10.6664 11.8481L10.6568 11.8481C10.3145 11.8486 9.98639 11.9848 9.74437 12.2268C9.50236 12.4688 9.36616 12.7969 9.36564 13.1392L9.36566 13.14C9.37026 13.4328 9.47639 13.7148 9.66592 13.938C9.85522 14.1609 10.116 14.3112 10.4037 14.3633C10.6031 14.4079 10.7769 14.5292 10.8875 14.701C10.9983 14.8731 11.0368 15.0819 10.9946 15.2821C10.9525 15.4824 10.833 15.658 10.6622 15.7707C10.4914 15.8835 10.2831 15.9244 10.0824 15.8845L10.0821 15.8844C9.44412 15.7608 8.86886 15.4194 8.45459 14.9187C8.04034 14.418 7.81277 13.789 7.81074 13.1392C7.81181 12.3959 8.10313 11.6824 8.62262 11.1508C9.14213 10.6191 9.84874 10.3114 10.5919 10.2932L10.6237 10.2924L10.6365 10.2632C10.9837 9.46719 11.5755 8.80255 12.326 8.36566C13.0766 7.92877 13.9467 7.74236 14.8104 7.83346C15.674 7.92457 16.4861 8.28845 17.129 8.87233C17.7718 9.45621 18.2119 10.2297 18.3854 11.0806L18.3936 11.1206H18.4344H18.5176C19.1627 11.1206 19.7814 11.3769 20.2376 11.833C20.6937 12.2892 20.95 12.9079 20.95 13.553C20.95 14.1981 20.6937 14.8168 20.2376 15.2729C19.7814 15.7291 19.1627 15.9853 18.5176 15.9853C18.3114 15.9853 18.1137 15.9034 17.9679 15.7576C17.8221 15.6118 17.7402 15.4141 17.7402 15.2079C17.7402 15.0017 17.8221 14.804 17.9679 14.6582C18.1137 14.5124 18.3114 14.4304 18.5176 14.4304C18.7504 14.4304 18.9735 14.338 19.1381 14.1734C19.3026 14.0089 19.3951 13.7857 19.3951 13.553C19.3951 13.3203 19.3026 13.0971 19.1381 12.9325C18.9735 12.768 18.7504 12.6755 18.5176 12.6755H17.6902H17.6902C17.588 12.6756 17.4869 12.6555 17.3926 12.6165C17.2982 12.5774 17.2125 12.5202 17.1403 12.448C17.0681 12.3758 17.0108 12.29 16.9718 12.1957C16.9327 12.1013 16.9127 12.0002 16.9127 11.8981ZM16.9127 11.8981L16.8627 11.8981L16.9127 11.8981C16.9127 11.8981 16.9127 11.8981 16.9127 11.8981Z" fill="#151515" stroke="#151515" stroke-width="0.1"/>
</svg>
