<svg width="14" height="12" viewBox="0 0 14 12" fill="none" xmlns="http://www.w3.org/2000/svg">
<path d="M2.13018 1.42903C2.13407 1.42125 2.14052 1.41516 2.14837 1.41184C3.05606 0.982362 4.01395 0.676111 4.99804 0.500751C5.00698 0.499037 5.01622 0.500274 5.02444 0.504285C5.03266 0.508296 5.03945 0.514878 5.04383 0.523095C5.17426 0.767229 5.29267 1.018 5.39859 1.27444C6.45939 1.10838 7.53842 1.10838 8.59922 1.27444C8.70585 1.01734 8.82615 0.766515 8.95958 0.523095C8.96416 0.515057 8.97097 0.508627 8.97915 0.504641C8.98732 0.500656 8.99646 0.4993 9.00539 0.500751C9.98959 0.675743 10.9475 0.982017 11.8551 1.41186C11.8629 1.41526 11.8694 1.42106 11.8739 1.42846C13.6889 4.2236 14.1861 6.95001 13.9421 9.64266C13.9415 9.64926 13.9395 9.65565 13.9364 9.66145C13.9332 9.66725 13.929 9.67234 13.9239 9.67642C12.8671 10.4834 11.685 11.0994 10.4281 11.498C10.4192 11.5008 10.4098 11.5006 10.401 11.4977C10.3922 11.4947 10.3845 11.489 10.379 11.4814C10.109 11.1026 9.86981 10.7015 9.6638 10.2822C9.66097 10.2764 9.65935 10.2701 9.65906 10.2637C9.65876 10.2572 9.65979 10.2508 9.66209 10.2448C9.66438 10.2388 9.66788 10.2334 9.67235 10.2288C9.67683 10.2243 9.68218 10.2209 9.68806 10.2186C10.0653 10.0698 10.4304 9.89039 10.7802 9.68207C10.7865 9.67822 10.7918 9.67281 10.7957 9.66633C10.7995 9.65985 10.8018 9.65249 10.8022 9.6449C10.8027 9.63732 10.8013 9.62974 10.7982 9.62283C10.7951 9.61593 10.7904 9.60991 10.7846 9.60532C10.7112 9.54862 10.6378 9.48964 10.5677 9.43008C10.5615 9.42479 10.5539 9.4214 10.5459 9.42029C10.5379 9.41918 10.5298 9.42039 10.5224 9.42379C8.23127 10.5021 5.75076 10.5021 3.4867 9.42379C3.47933 9.42017 3.47111 9.41879 3.463 9.4198C3.45489 9.42082 3.44722 9.42418 3.4409 9.42951C3.3708 9.48908 3.29739 9.54862 3.22346 9.60532C3.21757 9.60987 3.21284 9.61584 3.20972 9.62272C3.20659 9.6296 3.20515 9.63717 3.20553 9.64475C3.20592 9.65234 3.2081 9.65971 3.2119 9.66622C3.2157 9.67273 3.221 9.67817 3.22732 9.68207C3.57625 9.89214 3.94176 10.0714 4.31995 10.2181C4.32582 10.2204 4.33115 10.2239 4.3356 10.2285C4.34005 10.2331 4.34351 10.2386 4.34576 10.2446C4.34801 10.2507 4.34899 10.2572 4.34864 10.2636C4.3483 10.2701 4.34663 10.2764 4.34375 10.2822C4.13429 10.6992 3.89544 11.0998 3.62913 11.4808C3.62373 11.4886 3.61608 11.4945 3.60726 11.4975C3.59845 11.5006 3.58891 11.5008 3.58001 11.498C2.32086 11.1006 1.1367 10.4846 0.0785246 9.67642C0.0733728 9.67254 0.0690823 9.66758 0.0659409 9.66185C0.0628004 9.65613 0.0608797 9.64978 0.0603104 9.64323C-0.231691 6.53024 0.54917 3.82617 2.13018 1.42903ZM9.32163 8.00312C10.0114 8.00312 10.5798 7.35031 10.5798 6.54858C10.5798 5.74686 10.0225 5.094 9.32163 5.094C8.61532 5.094 8.05243 5.75253 8.06346 6.54853C8.06346 7.35031 8.62084 8.00312 9.32163 8.00312ZM4.66971 8.00312C5.3595 8.00312 5.92788 7.35031 5.92788 6.54858C5.92788 5.74686 5.37052 5.094 4.66971 5.094C3.96335 5.094 3.40049 5.75253 3.41151 6.54853C3.41151 7.35031 3.96335 8.00312 4.66971 8.00312Z" fill="#7A8EA0"/>
</svg>
